<svg xmlns="http://www.w3.org/2000/svg" width="24" height="24" fill="none"><path fill="#222" d="m4.827 7.138.445.227-.445-.227Zm.441 11.594.354.353-.354-.353Zm12.594-2.559-.227-.445.227.445Zm1.311-1.311-.445-.227.445.227Zm0-7.724-.445.227.445-.227Zm-1.311-1.311.227-.446-.227.446Zm-11.724 0 .227.445-.227-.445Zm1.07 10.966.353.353-.354-.353ZM5 10.3c0-.848 0-1.455.04-1.93.038-.469.11-.766.232-1.005l-.89-.454c-.206.403-.296.847-.34 1.378C4 8.814 4 9.469 4 10.3h1Zm0 1.2v-1.2H4v1.2h1Zm-1 0v5h1v-5H4Zm0 5v1.914h1V16.5H4Zm0 1.914c0 .846 1.023 1.27 1.622.671l-.707-.707a.059.059 0 0 1 .028-.013.046.046 0 0 1 .026.002.059.059 0 0 1 .03.046h-.999Zm1.622.671 1.939-1.939-.707-.707-1.94 1.94.708.706ZM14.7 16H7.914v1H14.7v-1Zm2.935-.273c-.239.122-.536.195-1.005.234-.476.039-1.082.039-1.93.039v1c.832 0 1.486 0 2.011-.043.531-.043.975-.133 1.378-.338l-.454-.892Zm1.092-1.092a2.5 2.5 0 0 1-1.092 1.092l.454.892a3.5 3.5 0 0 0 1.53-1.53l-.892-.454ZM19 11.7c0 .848 0 1.455-.04 1.93-.038.469-.11.766-.233 1.005l.892.454c.205-.403.295-.847.338-1.378.043-.525.043-1.18.043-2.011h-1Zm0-1.4v1.4h1v-1.4h-1Zm-.273-2.935c.122.239.195.536.234 1.005C19 8.845 19 9.452 19 10.3h1c0-.832 0-1.486-.043-2.011-.043-.531-.133-.975-.338-1.378l-.892.454Zm-1.092-1.093a2.5 2.5 0 0 1 1.092 1.093l.892-.454a3.5 3.5 0 0 0-1.53-1.53l-.454.891ZM14.7 6c.848 0 1.454 0 1.93.04.469.038.766.11 1.005.232l.454-.89c-.403-.206-.847-.296-1.378-.34C16.186 5 15.531 5 14.7 5v1ZM9.3 6h5.4V5H9.3v1Zm-2.935.272c.239-.121.536-.194 1.005-.233C7.845 6 8.452 6 9.3 6V5c-.832 0-1.486 0-2.011.043-.531.043-.975.133-1.378.338l.454.891ZM5.272 7.365a2.5 2.5 0 0 1 1.093-1.093l-.454-.89a3.5 3.5 0 0 0-1.53 1.529l.891.454Zm2.289 9.781A.5.5 0 0 1 7.914 17v-1a1.5 1.5 0 0 0-1.06.44l.707.706Z"/><path stroke="#222" stroke-linecap="round" stroke-linejoin="round" d="M8.5 9.5h7M8.5 12.5h5"/></svg>