<?xml version="1.0" encoding="UTF-8"?><!DOCTYPE svg PUBLIC "-//W3C//DTD SVG 1.1//EN" "http://www.w3.org/Graphics/SVG/1.1/DTD/svg11.dtd"><svg xmlns="http://www.w3.org/2000/svg" xmlns:xlink="http://www.w3.org/1999/xlink"><defs><clipPath id="a"><path fill="#fff" d="M0 0h16v16H0z"/></clipPath></defs><symbol id="analytics">
  <path fill="currentColor" d="M12 22C6.477 22 2 17.523 2 12S6.477 2 12 2s10 4.477 10 10c-.006 5.52-4.48 9.994-10 10ZM11 4.062a8 8 0 1 0 5.419 14.608l-.1.071.094-.065.059-.041.064-.045.016-.011.009-.007-5.128-5.13A1.51 1.51 0 0 1 11 12.379V4.062ZM13.829 13l4.227 4.227.007-.008.005-.006-.01.011A7.944 7.944 0 0 0 19.938 13h-6.109ZM13 4.062V11h6.938A8 8 0 0 0 13 4.062Z"/>
</symbol><symbol id="arrow">
  <path fill="#3949AB" d="m15.713 12-6.01-6.01-1.415 1.413 4.6 4.598-4.6 4.595 1.414 1.415 6.01-6.01Z"/>
</symbol><symbol id="check"><path d="M10.74 1 3.58 8.879.984 6.42" stroke="#81E299" stroke-linecap="round" stroke-linejoin="round"/></symbol><symbol id="exit">
  <path fill="currentColor" d="M19 21h-9a2 2 0 0 1-2-2v-4h2v4h9V5h-9v4H8V5a2 2 0 0 1 2-2h9a2 2 0 0 1 2 2v14a2 2 0 0 1-2 2Zm-7-5v-3H3v-2h9V8l5 4-5 4Z"/>
</symbol><symbol id="friends">
  <path fill="currentColor" d="M9 3a5 5 0 1 0 0 10A5 5 0 0 0 9 3ZM6 8a3 3 0 1 1 6 0 3 3 0 0 1-6 0ZM16.908 8.218A2 2 0 0 0 16 8V6a4 4 0 1 1-2.357 7.232l1.178-1.616a2 2 0 1 0 2.087-3.398ZM19.998 21A3.999 3.999 0 0 0 16 17.002V15a6.001 6.001 0 0 1 6 6h-2.002ZM16 21h-2a5 5 0 0 0-10 0H2a7 7 0 1 1 14 0Z"/>
</symbol><symbol id="help">
  <path fill="currentColor" d="M12 22c-5.52-.006-9.994-4.48-10-10v-.2C2.11 6.305 6.635 1.928 12.13 2c5.497.074 9.904 4.569 9.868 10.065C21.962 17.562 17.497 22 12 22Zm-.016-2H12a8 8 0 1 0-.016 0ZM13 18h-2v-2h2v2Zm0-3h-2a3.583 3.583 0 0 1 1.77-3.178C13.43 11.316 14 10.88 14 10a2 2 0 1 0-4 0H8v-.09a4 4 0 0 1 8 .09 3.413 3.413 0 0 1-1.56 2.645A3.1 3.1 0 0 0 13 15Z"/>
</symbol><symbol id="kebab-horizontal"><path d="M1.5 9a1.5 1.5 0 1 0 0-3 1.5 1.5 0 0 0 0 3ZM8 9a1.5 1.5 0 1 0 0-3 1.5 1.5 0 0 0 0 3ZM16 7.5a1.5 1.5 0 1 1-3 0 1.5 1.5 0 0 1 3 0Z" fill="#666668"/></symbol><symbol id="paper-airplane"><g clip-path="url(#a)"><path fill-rule="evenodd" clip-rule="evenodd" d="M1.592 2.712 2.38 7.25H7.25a.75.75 0 1 1 0 1.5H2.38l-.788 4.538L13.929 8 1.592 2.712ZM.989 8 .064 2.68a1.341 1.341 0 0 1 1.85-1.462l13.402 5.744a1.13 1.13 0 0 1 0 2.076L1.913 14.782a1.341 1.341 0 0 1-1.85-1.463L.99 8Z" fill="#8E8E93"/></g></symbol><symbol id="profile">
  <circle cx="12" cy="8" r="3.5" stroke="currentColor"/>
  <path stroke="currentColor" stroke-linecap="round" d="M4.85 16.948c.639-2.345 3.065-3.448 5.495-3.448h3.31c2.43 0 4.856 1.103 5.496 3.448a9.95 9.95 0 0 1 .295 1.553c.06.55-.394.999-.946.999h-13c-.552 0-1.005-.45-.946-.998a9.94 9.94 0 0 1 .295-1.554Z"/>
</symbol><symbol id="search">
  <path fill="currentColor" d="m18.677 19.607-5.715-5.716a6 6 0 0 1-7.719-9.133 6 6 0 0 1 9.134 7.718l5.715 5.716-1.414 1.414h-.001ZM9.485 5a4 4 0 1 0 2.917 1.264l.605.6-.682-.68-.012-.012A3.972 3.972 0 0 0 9.485 5Z"/>
</symbol><symbol id="settings">
  <path fill="currentColor" d="M13.82 22h-3.64a1 1 0 0 1-.977-.786l-.407-1.884a8.002 8.002 0 0 1-1.535-.887l-1.837.585a1 1 0 0 1-1.17-.453L2.43 15.424a1.006 1.006 0 0 1 .193-1.239l1.425-1.3a8.1 8.1 0 0 1 0-1.772L2.623 9.816a1.006 1.006 0 0 1-.193-1.24l1.82-3.153a1 1 0 0 1 1.17-.453l1.837.585c.244-.18.498-.348.76-.5.253-.142.513-.271.779-.386l.408-1.882A1 1 0 0 1 10.18 2h3.64a1 1 0 0 1 .976.787l.412 1.883a7.993 7.993 0 0 1 1.534.887l1.838-.585a1 1 0 0 1 1.169.453l1.82 3.153c.232.407.152.922-.193 1.239l-1.425 1.3a8.1 8.1 0 0 1 0 1.772l1.425 1.3c.345.318.425.832.193 1.239l-1.82 3.153a1 1 0 0 1-1.17.453l-1.837-.585a7.98 7.98 0 0 1-1.534.886l-.412 1.879a1 1 0 0 1-.976.786Zm-6.2-5.771.82.6c.185.136.377.261.577.375.188.109.38.207.579.296l.933.409.457 2.091h2.03l.457-2.092.933-.409c.407-.18.794-.403 1.153-.666l.82-.6 2.042.65 1.015-1.758-1.583-1.443.112-1.012c.05-.443.05-.89 0-1.332l-.112-1.012 1.584-1.446-1.016-1.759-2.041.65-.821-.6a6.227 6.227 0 0 0-1.153-.671l-.933-.409L13.016 4h-2.03l-.46 2.092-.93.408a6.01 6.01 0 0 0-1.153.666l-.821.6-2.04-.65L4.565 8.88l1.583 1.441-.112 1.013c-.05.443-.05.89 0 1.332l.112 1.012-1.583 1.443 1.015 1.758 2.04-.65ZM11.996 16a4 4 0 1 1 0-8 4 4 0 0 1 0 8Zm0-6a2 2 0 1 0 2 2.09v.4V12a2 2 0 0 0-2-2Z"/>
</symbol><symbol id="smiley"><path fill-rule="evenodd" clip-rule="evenodd" d="M1.5 8a6.5 6.5 0 1 1 13 0 6.5 6.5 0 0 1-13 0ZM8 0a8 8 0 1 0 0 16A8 8 0 0 0 8 0ZM5 8a1 1 0 1 0 0-2 1 1 0 0 0 0 2Zm7-1a1 1 0 1 1-2 0 1 1 0 0 1 2 0ZM5.32 9.636a.75.75 0 0 1 1.038.175l.007.009c.103.118.22.222.35.31.264.178.683.37 1.285.37.602 0 1.02-.192 1.285-.371.13-.088.247-.192.35-.31l.007-.008a.75.75 0 1 1 1.222.87l-.614-.431c.614.43.614.431.613.431v.001l-.001.002-.002.003-.005.007-.014.019a1.984 1.984 0 0 1-.184.213c-.16.166-.338.316-.53.445-.63.418-1.37.638-2.127.629-.946 0-1.652-.308-2.126-.63a3.32 3.32 0 0 1-.715-.657l-.014-.02-.005-.006-.002-.003v-.002h-.001l.613-.432-.614.43a.75.75 0 0 1 .183-1.044h.001Z" fill="#2C2C2E"/></symbol></svg>